<?xml version="1.0" encoding="UTF-8"?>
<!DOCTYPE svg PUBLIC "-//W3C//DTD SVG 1.1//EN" "http://www.w3.org/Graphics/SVG/1.1/DTD/svg11.dtd">
<svg xmlns="http://www.w3.org/2000/svg" version="1.1" width="500px" height="500px" style="shape-rendering:geometricPrecision; text-rendering:geometricPrecision; image-rendering:optimizeQuality; fill-rule:evenodd; clip-rule:evenodd" xmlns:xlink="http://www.w3.org/1999/xlink">
<g><path style="opacity:0.62" fill="#696967" d="M 231.5,88.5 C 230.089,90.914 228.089,92.5806 225.5,93.5C 226.911,91.086 228.911,89.4194 231.5,88.5 Z"/></g>
<g><path style="opacity:0.486" fill="#50524f" d="M 302.5,91.5 C 294.73,91.1954 287.063,91.8621 279.5,93.5C 284.348,91.39 289.515,90.0566 295,89.5C 297.669,90.0161 300.169,90.6827 302.5,91.5 Z"/></g>
<g><path style="opacity:0.999" fill="#f2f2ed" d="M 302.5,91.5 C 310.283,91.8535 317.283,94.1868 323.5,98.5C 324.035,100.446 325.368,101.446 327.5,101.5C 329.754,102.415 331.754,103.748 333.5,105.5C 333.5,107.5 334.5,108.5 336.5,108.5C 336.738,110.404 337.738,111.738 339.5,112.5C 324.673,130.051 306.007,135.884 283.5,130C 277.508,127.83 272.508,124.33 268.5,119.5C 270.282,116.499 272.949,114.666 276.5,114C 283.158,113.5 289.825,113.334 296.5,113.5C 298.011,112.042 299.011,110.209 299.5,108C 298.255,107.209 296.922,106.709 295.5,106.5C 293.193,104.953 290.527,104.287 287.5,104.5C 284.186,104.343 281.186,105.009 278.5,106.5C 274.167,107.833 269.833,109.167 265.5,110.5C 264.566,109.432 264.232,108.099 264.5,106.5C 266.587,105.415 267.92,103.749 268.5,101.5C 268.833,100.5 269.5,99.8333 270.5,99.5C 272.404,99.2624 273.738,98.2624 274.5,96.5C 274.842,95.6618 275.508,95.3284 276.5,95.5C 278.027,95.573 279.027,94.9063 279.5,93.5C 287.063,91.8621 294.73,91.1954 302.5,91.5 Z"/></g>
<g><path style="opacity:0.996" fill="#ecede8" d="M 241.5,94.5 C 241.5,95.1667 241.5,95.8333 241.5,96.5C 241.751,98.1703 242.418,99.6703 243.5,101C 243.167,101.333 242.833,101.667 242.5,102C 245.557,102.551 245.89,104.217 243.5,107C 246.301,108.308 248.634,110.141 250.5,112.5C 250.42,115.781 251.087,118.781 252.5,121.5C 253.468,123.607 253.802,125.941 253.5,128.5C 254.025,133.14 253.358,137.473 251.5,141.5C 248.92,143.016 246.92,142.349 245.5,139.5C 245.037,136.67 244.371,134.003 243.5,131.5C 242.016,127.9 240.682,124.234 239.5,120.5C 239.88,118.302 239.213,116.635 237.5,115.5C 235.808,113.795 234.475,111.795 233.5,109.5C 233.573,107.973 232.906,106.973 231.5,106.5C 229.167,104.833 227.167,102.833 225.5,100.5C 225.5,98.1667 225.5,95.8333 225.5,93.5C 228.089,92.5806 230.089,90.914 231.5,88.5C 236.8,86.8267 240.134,88.8267 241.5,94.5 Z"/></g>
<g><path style="opacity:0.408" fill="#5a5a56" d="M 279.5,93.5 C 279.027,94.9063 278.027,95.573 276.5,95.5C 276.973,94.0937 277.973,93.427 279.5,93.5 Z"/></g>
<g><path style="opacity:0.498" fill="#595a57" d="M 225.5,93.5 C 225.5,95.8333 225.5,98.1667 225.5,100.5C 223.109,98.0976 223.109,95.7642 225.5,93.5 Z"/></g>
<g><path style="opacity:0.133" fill="#43433e" d="M 241.5,94.5 C 242.906,94.9731 243.573,95.9731 243.5,97.5C 242.833,97.1667 242.167,96.8333 241.5,96.5C 241.5,95.8333 241.5,95.1667 241.5,94.5 Z"/></g>
<g><path style="opacity:0.318" fill="#5b5e5d" d="M 274.5,96.5 C 273.738,98.2624 272.404,99.2624 270.5,99.5C 271.262,97.7376 272.596,96.7376 274.5,96.5 Z"/></g>
<g><path style="opacity:0.686" fill="#6d6d6c" d="M 323.5,98.5 C 325.23,99.0256 326.564,100.026 327.5,101.5C 325.368,101.446 324.035,100.446 323.5,98.5 Z"/></g>
<g><path style="opacity:0.529" fill="#454847" d="M 268.5,101.5 C 267.92,103.749 266.587,105.415 264.5,106.5C 265.08,104.251 266.413,102.585 268.5,101.5 Z"/></g>
<g><path style="opacity:0.98" fill="#bebebc" d="M 241.5,96.5 C 242.167,96.8333 242.833,97.1667 243.5,97.5C 246.616,102.07 248.95,107.07 250.5,112.5C 248.634,110.141 246.301,108.308 243.5,107C 245.89,104.217 245.557,102.551 242.5,102C 242.833,101.667 243.167,101.333 243.5,101C 242.418,99.6703 241.751,98.1703 241.5,96.5 Z"/></g>
<g><path style="opacity:0.169" fill="#3f3f3e" d="M 295.5,106.5 C 289.847,105.353 284.18,105.353 278.5,106.5C 281.186,105.009 284.186,104.343 287.5,104.5C 290.527,104.287 293.193,104.953 295.5,106.5 Z"/></g>
<g><path style="opacity:0.298" fill="#434342" d="M 333.5,105.5 C 334.833,106.167 335.833,107.167 336.5,108.5C 334.5,108.5 333.5,107.5 333.5,105.5 Z"/></g>
<g><path style="opacity:0.008" fill="#2f2f2e" d="M 231.5,106.5 C 232.906,106.973 233.573,107.973 233.5,109.5C 232.094,109.027 231.427,108.027 231.5,106.5 Z"/></g>
<g><path style="opacity:0.412" fill="#4b4c4c" d="M 336.5,108.5 C 338.262,109.262 339.262,110.596 339.5,112.5C 337.738,111.738 336.738,110.404 336.5,108.5 Z"/></g>
<g><path style="opacity:0.086" fill="#6d7372" d="M 264.5,106.5 C 264.232,108.099 264.566,109.432 265.5,110.5C 263.756,113.1 262.423,112.934 261.5,110C 262.394,108.896 263.394,107.73 264.5,106.5 Z"/></g>
<g><path style="opacity:0.2" fill="#50504e" d="M 295.5,106.5 C 296.922,106.709 298.255,107.209 299.5,108C 299.011,110.209 298.011,112.042 296.5,113.5C 298.063,110.868 297.73,108.535 295.5,106.5 Z"/></g>
<g><path style="opacity:0.69" fill="#737372" d="M 250.5,112.5 C 251.913,115.219 252.58,118.219 252.5,121.5C 251.087,118.781 250.42,115.781 250.5,112.5 Z"/></g>
<g><path style="opacity:0.169" fill="#3a3f3a" d="M 237.5,115.5 C 239.213,116.635 239.88,118.302 239.5,120.5C 238.463,119.07 237.796,117.403 237.5,115.5 Z"/></g>
<g><path style="opacity:0.086" fill="#1b1b1b" d="M 253.5,128.5 C 254.645,132.311 254.812,136.311 254,140.5C 253.329,141.252 252.496,141.586 251.5,141.5C 253.358,137.473 254.025,133.14 253.5,128.5 Z"/></g>
<g><path style="opacity:0.071" fill="#323230" d="M 243.5,131.5 C 244.371,134.003 245.037,136.67 245.5,139.5C 244.883,139.389 244.383,139.056 244,138.5C 243.503,136.19 243.337,133.857 243.5,131.5 Z"/></g>
<g><path style="opacity:0.702" fill="#939392" d="M 238.5,140.5 C 235.833,140.833 233.167,141.167 230.5,141.5C 233.04,139.587 235.707,139.254 238.5,140.5 Z"/></g>
<g><path style="opacity:0.118" fill="#404040" d="M 266.5,140.5 C 264.05,140.298 261.717,140.631 259.5,141.5C 260.152,140.275 261.319,139.608 263,139.5C 264.385,139.514 265.551,139.848 266.5,140.5 Z"/></g>
<g><path style="opacity:1" fill="#fbfaf5" d="M 238.5,140.5 C 239.508,143.028 241.174,145.195 243.5,147C 247.871,147.629 252.204,147.463 256.5,146.5C 258.727,145.599 259.727,143.933 259.5,141.5C 261.717,140.631 264.05,140.298 266.5,140.5C 277.485,142.825 285.818,148.825 291.5,158.5C 292.626,160.5 292.793,162.5 292,164.5C 293.145,164.619 294.312,164.952 295.5,165.5C 297.927,170.877 299.26,176.544 299.5,182.5C 299.334,186.514 299.501,190.514 300,194.5C 300.383,195.056 300.883,195.389 301.5,195.5C 303.001,206.003 306.334,216.003 311.5,225.5C 311.427,227.027 312.094,228.027 313.5,228.5C 313.427,230.027 314.094,231.027 315.5,231.5C 318.2,233.234 320.2,235.568 321.5,238.5C 321.738,240.404 322.738,241.738 324.5,242.5C 326.633,244.091 328.299,246.091 329.5,248.5C 329.427,250.027 330.094,251.027 331.5,251.5C 340.075,261.653 345.742,273.32 348.5,286.5C 348.565,289.428 349.232,292.095 350.5,294.5C 356.172,336.302 341.838,369.136 307.5,393C 293.106,402.182 277.439,405.849 260.5,404C 256.864,402.732 253.197,401.566 249.5,400.5C 231.19,406.889 213.523,405.389 196.5,396C 180.365,387.031 167.698,374.531 158.5,358.5C 159.548,356.029 158.881,353.863 156.5,352C 157.736,350.144 157.736,348.311 156.5,346.5C 159.642,345.833 162.642,345.166 165.5,344.5C 167.379,343.659 169.379,343.325 171.5,343.5C 173.527,343.662 175.527,343.495 177.5,343C 178.056,342.617 178.389,342.117 178.5,341.5C 180.897,339.805 183.563,338.472 186.5,337.5C 188.749,336.92 190.415,335.587 191.5,333.5C 193.196,331.475 194.863,329.475 196.5,327.5C 197.906,327.027 198.573,326.027 198.5,324.5C 198.733,322.938 199.4,321.605 200.5,320.5C 201.496,320.586 202.329,320.252 203,319.5C 203.696,316.522 204.196,313.522 204.5,310.5C 207.528,287.719 198.862,271.219 178.5,261C 172.985,259.11 167.319,258.276 161.5,258.5C 161.263,257.209 161.596,256.209 162.5,255.5C 164.587,254.415 165.92,252.749 166.5,250.5C 169.26,248.746 171.26,246.412 172.5,243.5C 177.167,237.996 181.667,232.33 186,226.5C 188.707,222.419 190.874,218.086 192.5,213.5C 194.213,212.365 194.88,210.698 194.5,208.5C 194.5,208.167 194.5,207.833 194.5,207.5C 196.163,205.562 196.829,203.228 196.5,200.5C 197,191.665 198.333,182.998 200.5,174.5C 201.924,172.485 202.59,170.152 202.5,167.5C 203.742,163.345 205.742,159.678 208.5,156.5C 209.583,156.461 210.583,156.127 211.5,155.5C 212.458,153.216 213.792,151.216 215.5,149.5C 217.749,148.92 219.415,147.587 220.5,145.5C 222.027,145.573 223.027,144.906 223.5,143.5C 225.588,142.061 227.921,141.394 230.5,141.5C 233.167,141.167 235.833,140.833 238.5,140.5 Z"/></g>
<g><path style="opacity:0.392" fill="#626762" d="M 223.5,143.5 C 223.027,144.906 222.027,145.573 220.5,145.5C 220.973,144.094 221.973,143.427 223.5,143.5 Z"/></g>
<g><path style="opacity:0.184" fill="#2a2a28" d="M 259.5,141.5 C 259.727,143.933 258.727,145.599 256.5,146.5C 257.11,144.566 258.11,142.899 259.5,141.5 Z"/></g>
<g><path style="opacity:0.604" fill="#818784" d="M 220.5,145.5 C 219.415,147.587 217.749,148.92 215.5,149.5C 216.585,147.413 218.251,146.08 220.5,145.5 Z"/></g>
<g><path style="opacity:0.937" fill="#8d9896" d="M 215.5,149.5 C 213.792,151.216 212.458,153.216 211.5,155.5C 210.583,156.127 209.583,156.461 208.5,156.5C 209.836,154.99 211.003,153.323 212,151.5C 212.816,150.177 213.983,149.511 215.5,149.5 Z"/></g>
<g><path style="opacity:0.958" fill="#9d9c9a" d="M 291.5,158.5 C 293.588,160.336 294.921,162.669 295.5,165.5C 294.312,164.952 293.145,164.619 292,164.5C 292.793,162.5 292.626,160.5 291.5,158.5 Z"/></g>
<g><path style="opacity:0.475" fill="#606c63" d="M 202.5,167.5 C 202.59,170.152 201.924,172.485 200.5,174.5C 200.41,171.848 201.076,169.515 202.5,167.5 Z"/></g>
<g><path style="opacity:0.878" fill="#b7b7b4" d="M 299.5,182.5 C 300.895,186.591 301.562,190.924 301.5,195.5C 300.883,195.389 300.383,195.056 300,194.5C 299.501,190.514 299.334,186.514 299.5,182.5 Z"/></g>
<g><path style="opacity:0.447" fill="#51574f" d="M 196.5,200.5 C 196.829,203.228 196.163,205.562 194.5,207.5C 194.721,204.933 195.388,202.599 196.5,200.5 Z"/></g>
<g><path style="opacity:0.439" fill="#4a504a" d="M 194.5,208.5 C 194.88,210.698 194.213,212.365 192.5,213.5C 192.796,211.597 193.463,209.93 194.5,208.5 Z"/></g>
<g><path style="opacity:0.169" fill="#707070" d="M 311.5,225.5 C 312.906,225.973 313.573,226.973 313.5,228.5C 312.094,228.027 311.427,227.027 311.5,225.5 Z"/></g>
<g><path style="opacity:0.235" fill="#727272" d="M 313.5,228.5 C 314.906,228.973 315.573,229.973 315.5,231.5C 314.094,231.027 313.427,230.027 313.5,228.5 Z"/></g>
<g><path style="opacity:0.247" fill="#53534f" d="M 321.5,238.5 C 323.262,239.262 324.262,240.596 324.5,242.5C 322.738,241.738 321.738,240.404 321.5,238.5 Z"/></g>
<g><path style="opacity:0.882" fill="#88918e" d="M 172.5,243.5 C 171.26,246.412 169.26,248.746 166.5,250.5C 167.757,247.573 169.757,245.239 172.5,243.5 Z"/></g>
<g><path style="opacity:0.231" fill="#6b6b67" d="M 329.5,248.5 C 330.906,248.973 331.573,249.973 331.5,251.5C 330.094,251.027 329.427,250.027 329.5,248.5 Z"/></g>
<g><path style="opacity:0.094" fill="#343a38" d="M 166.5,250.5 C 165.92,252.749 164.587,254.415 162.5,255.5C 163.08,253.251 164.413,251.585 166.5,250.5 Z"/></g>
<g><path style="opacity:0.565" fill="#73726e" d="M 348.5,286.5 C 350.04,288.838 350.706,291.505 350.5,294.5C 349.232,292.095 348.565,289.428 348.5,286.5 Z"/></g>
<g><path style="opacity:0.922" fill="#98a09b" d="M 204.5,310.5 C 204.196,313.522 203.696,316.522 203,319.5C 202.329,320.252 201.496,320.586 200.5,320.5C 201.658,317.011 202.991,313.678 204.5,310.5 Z"/></g>
<g><path style="opacity:0.161" fill="#515653" d="M 198.5,324.5 C 198.573,326.027 197.906,327.027 196.5,327.5C 196.427,325.973 197.094,324.973 198.5,324.5 Z"/></g>
<g><path style="opacity:0.663" fill="#838985" d="M 191.5,333.5 C 190.415,335.587 188.749,336.92 186.5,337.5C 187.585,335.413 189.251,334.08 191.5,333.5 Z"/></g>
<g><path style="opacity:0.682" fill="#737471" d="M 178.5,341.5 C 178.389,342.117 178.056,342.617 177.5,343C 175.527,343.495 173.527,343.662 171.5,343.5C 173.657,342.593 175.99,341.927 178.5,341.5 Z"/></g>
<g><path style="opacity:0.014" fill="#0b0b09" d="M 153.5,343.5 C 153.735,342.903 154.235,342.57 155,342.5C 157.346,342.99 159.513,343.657 161.5,344.5C 158.721,344.721 156.054,344.388 153.5,343.5 Z"/></g>
<g><path style="opacity:0.892" fill="#c1c2be" d="M 153.5,343.5 C 156.054,344.388 158.721,344.721 161.5,344.5C 162.833,344.5 164.167,344.5 165.5,344.5C 162.642,345.166 159.642,345.833 156.5,346.5C 157.736,348.311 157.736,350.144 156.5,352C 158.881,353.863 159.548,356.029 158.5,358.5C 155.997,353.806 153.664,348.973 151.5,344C 152.094,343.536 152.761,343.369 153.5,343.5 Z"/></g>
</svg>
